<svg width="14" height="16" viewBox="0 0 14 16" fill="none" xmlns="http://www.w3.org/2000/svg">
<path d="M1.25391 9.43971C1.25391 12.6301 3.81873 15.1973 7.0049 15.1973C10.1899 15.1973 12.7495 12.6301 12.7495 9.43971C12.7495 9.06119 12.4843 8.79189 12.1064 8.79189C11.7401 8.79189 11.492 9.06119 11.492 9.43971C11.492 11.9333 9.49428 13.9362 7.0049 13.9362C4.51435 13.9362 2.51488 11.9333 2.51488 9.43971C2.51488 6.93283 4.49813 4.9409 6.9852 4.9409C7.40601 4.9409 7.80042 4.97373 8.13034 5.04762L6.37621 6.78249C6.26461 6.90053 6.19922 7.04316 6.19922 7.21076C6.19922 7.5636 6.4667 7.82996 6.81426 7.82996C6.99833 7.82996 7.14495 7.77033 7.25359 7.65526L9.89716 4.99176C10.0339 4.86032 10.0917 4.70611 10.0917 4.52795C10.0917 4.35855 10.0233 4.1903 9.89716 4.06531L7.25359 1.3807C7.14379 1.25802 6.99305 1.19727 6.81426 1.19727C6.4667 1.19727 6.19922 1.47647 6.19922 1.83047C6.19922 1.99807 6.26461 2.14071 6.37094 2.25875L7.92774 3.79511C7.64286 3.74117 7.31873 3.70423 6.9852 3.70423C3.80251 3.70423 1.25391 6.25226 1.25391 9.43971Z" fill="white"/>
<path fill-rule="evenodd" clip-rule="evenodd" d="M6.3725 2.25884C6.26617 2.1408 6.20078 1.99817 6.20078 1.83057C6.20078 1.47657 6.46827 1.19736 6.81582 1.19736C6.99462 1.19736 7.14535 1.25812 7.25515 1.3808L9.89873 4.06541C10.0249 4.1904 10.0933 4.35865 10.0933 4.52805C10.0933 4.70621 10.0355 4.86042 9.89873 4.99186L7.25515 7.65535C7.14651 7.77043 6.9999 7.83006 6.81582 7.83006C6.46827 7.83006 6.20078 7.5637 6.20078 7.21086C6.20078 7.04325 6.26617 6.90063 6.37778 6.78259L8.1319 5.04772C7.98046 5.0138 7.81544 4.98854 7.64051 4.97113C7.43434 4.95061 7.21442 4.941 6.98677 4.941C4.49969 4.941 2.51644 6.93293 2.51644 9.4398C2.51644 11.9334 4.51591 13.9363 7.00646 13.9363C9.49584 13.9363 11.4935 11.9334 11.4935 9.4398C11.4935 9.06129 11.7417 8.79199 12.1079 8.79199C12.4858 8.79199 12.751 9.06129 12.751 9.4398C12.751 12.6302 10.1915 15.1974 7.00646 15.1974C3.82029 15.1974 1.25547 12.6302 1.25547 9.4398C1.25547 6.25235 3.80407 3.70433 6.98677 3.70433C7.08453 3.70433 7.18149 3.7075 7.27689 3.71335C7.50695 3.72745 7.72793 3.75708 7.9293 3.79521L6.3725 2.25884ZM6.86364 3.30552L6.08316 2.53529L6.07529 2.52655C5.91348 2.34692 5.80078 2.11193 5.80078 1.83057C5.80078 1.26832 6.2349 0.797363 6.81582 0.797363C7.08817 0.797363 7.35047 0.892409 7.54597 1.10604L10.1822 3.78319C10.383 3.98314 10.4933 4.25284 10.4933 4.52805C10.4933 4.80466 10.3983 5.06455 10.1796 5.27664L7.54212 7.93404C7.34808 8.13722 7.09217 8.23006 6.81582 8.23006C6.24606 8.23006 5.80078 7.78332 5.80078 7.21086C5.80078 6.92833 5.91455 6.69031 6.08712 6.50778L6.09634 6.49803L7.2613 5.34618C7.17221 5.34272 7.08057 5.341 6.98677 5.341C4.72276 5.341 2.91644 7.15168 2.91644 9.4398C2.91644 11.713 4.7374 13.5363 7.00646 13.5363C9.27407 13.5363 11.0935 11.7133 11.0935 9.4398C11.0935 9.16261 11.1854 8.89829 11.372 8.69992C11.5606 8.49942 11.8222 8.39199 12.1079 8.39199C12.3948 8.39199 12.6607 8.49592 12.8554 8.69248C13.0497 8.8887 13.151 9.15492 13.151 9.4398C13.151 12.8501 10.4133 15.5974 7.00646 15.5974C3.59897 15.5974 0.855469 12.8507 0.855469 9.4398C0.855469 6.0728 3.51745 3.37036 6.86364 3.30552Z" fill="white"/>
</svg>
