<svg width="20" height="20" viewBox="0 0 20 20" fill="none" xmlns="http://www.w3.org/2000/svg">
<path d="M16.5639 3.43902C14.6492 1.52427 11.5881 1.52521 9.68479 3.42849C8.26467 4.84861 7.84946 6.93717 8.63698 8.77552L3.52112 13.8914C3.36511 14.0474 3.28774 14.2243 3.28815 14.4602L3.3085 16.2591C3.3142 16.479 3.50879 16.7244 3.78708 16.7244L7.11449 16.7253C7.41132 16.7201 7.61584 16.5031 7.6211 16.2149L7.61341 14.3026L10.303 14.3007C10.584 14.3007 10.7975 14.089 10.7976 13.7888L10.8062 11.1611C13.0557 12.0721 15.1364 11.7476 16.5701 10.3138C18.4681 8.41585 18.4734 5.3485 16.5639 3.43902ZM13.4444 6.55856C12.9552 6.06933 12.9595 5.28114 13.4488 4.79188C13.9389 4.3017 14.7165 4.29931 15.2101 4.79286C15.6993 5.28209 15.7046 6.06932 15.2154 6.55852C14.7261 7.04778 13.9336 7.04779 13.4444 6.55856Z" fill="white"/>
</svg>
